<?xml version="1.0" encoding="UTF-8"?>
<svg xmlns="http://www.w3.org/2000/svg" xmlns:xlink="http://www.w3.org/1999/xlink" width="44px" height="44px" viewBox="0 0 44 44" version="1.1">
<g id="surface1">
<path style=" stroke:none;fill-rule:evenodd;fill:rgb(10.588235%,12.156863%,13.72549%);fill-opacity:1;" d="M 22 0 C 9.84375 0 0 9.84375 0 22 C 0 31.734375 6.296875 39.957031 15.042969 42.871094 C 16.140625 43.066406 16.554688 42.40625 16.554688 41.828125 C 16.554688 41.304688 16.527344 39.574219 16.527344 37.730469 C 11 38.746094 9.570312 36.382812 9.128906 35.144531 C 8.882812 34.511719 7.808594 32.558594 6.875 32.039062 C 6.105469 31.625 5.003906 30.609375 6.847656 30.578125 C 8.578125 30.550781 9.816406 32.175781 10.230469 32.835938 C 12.210938 36.164062 15.371094 35.226562 16.636719 34.648438 C 16.828125 33.21875 17.40625 32.257812 18.039062 31.707031 C 13.144531 31.15625 8.03125 29.261719 8.03125 20.84375 C 8.03125 18.453125 8.882812 16.472656 10.285156 14.933594 C 10.066406 14.382812 9.296875 12.128906 10.503906 9.101562 C 10.503906 9.101562 12.347656 8.523438 16.554688 11.359375 C 18.316406 10.863281 20.183594 10.613281 22.054688 10.613281 C 23.925781 10.613281 25.796875 10.863281 27.554688 11.359375 C 31.761719 8.496094 33.605469 9.101562 33.605469 9.101562 C 34.816406 12.128906 34.046875 14.382812 33.824219 14.933594 C 35.226562 16.472656 36.078125 18.425781 36.078125 20.84375 C 36.078125 29.289062 30.9375 31.15625 26.042969 31.707031 C 26.839844 32.394531 27.527344 33.714844 27.527344 35.777344 C 27.527344 38.71875 27.5 41.085938 27.5 41.828125 C 27.5 42.40625 27.914062 43.09375 29.011719 42.871094 C 37.703125 39.957031 44 31.707031 44 22 C 44 9.84375 34.15625 0 22 0 Z M 22 0 "/>
</g>
</svg>
