<?xml version="1.0" encoding="UTF-8"?>
<svg xmlns="http://www.w3.org/2000/svg" xmlns:xlink="http://www.w3.org/1999/xlink" width="44px" height="44px" viewBox="0 0 44 44" version="1.1">
<g id="surface1">
<path style=" stroke:none;fill-rule:nonzero;fill:rgb(3.921569%,40%,76.078431%);fill-opacity:1;" d="M 37.488281 37.492188 L 30.96875 37.492188 L 30.96875 27.277344 C 30.96875 24.84375 30.925781 21.707031 27.578125 21.707031 C 24.183594 21.707031 23.664062 24.359375 23.664062 27.101562 L 23.664062 37.492188 L 17.144531 37.492188 L 17.144531 16.496094 L 23.402344 16.496094 L 23.402344 19.363281 L 23.488281 19.363281 C 24.765625 17.183594 27.136719 15.878906 29.664062 15.972656 C 36.269531 15.972656 37.488281 20.320312 37.488281 25.972656 Z M 9.789062 13.625 C 7.699219 13.625 6.003906 11.929688 6.003906 9.839844 C 6.003906 7.75 7.699219 6.058594 9.789062 6.058594 C 11.878906 6.058594 13.570312 7.75 13.570312 9.839844 C 13.570312 11.929688 11.878906 13.625 9.789062 13.625 M 13.046875 37.492188 L 6.523438 37.492188 L 6.523438 16.496094 L 13.050781 16.496094 Z M 40.734375 0.00390625 L 3.246094 0.00390625 C 2.394531 -0.0078125 1.574219 0.324219 0.964844 0.917969 C 0.355469 1.515625 0.0078125 2.328125 0 3.179688 L 0 40.820312 C 0.0195312 42.59375 1.472656 44.015625 3.246094 43.996094 L 40.734375 43.996094 C 42.515625 44.019531 43.976562 42.597656 44 40.820312 L 44 3.171875 C 43.972656 1.394531 42.511719 -0.0234375 40.734375 0 "/>
</g>
</svg>
